<svg xmlns="http://www.w3.org/2000/svg" version="1.1" xmlns:xlink="http://www.w3.org/1999/xlink" xmlns:svgjs="http://svgjs.com/svgjs" width="1400" height="360" preserveAspectRatio="none" viewBox="0 0 1400 360"><g mask="url(&quot;#SvgjsMask11373&quot;)" fill="none"><rect width="1400" height="360" x="0" y="0" fill="url(#SvgjsLinearGradient11374)"></rect><use xlink:href="#SvgjsSymbol11381" x="0" y="0"></use><use xlink:href="#SvgjsSymbol11381" x="720" y="0"></use></g><defs><mask id="SvgjsMask11373"><rect width="1400" height="360" fill="#ffffff"></rect></mask><linearGradient x1="100%" y1="50%" x2="0%" y2="50%" gradientUnits="userSpaceOnUse" id="SvgjsLinearGradient11374"><stop stop-color="rgba(14, 42, 71, 1)" offset="0"></stop><stop stop-color="rgba(17, 55, 103, 0.88)" offset="0.85"></stop></linearGradient><path d="M-1 0 a1 1 0 1 0 2 0 a1 1 0 1 0 -2 0z" id="SvgjsPath11378"></path><path d="M-3 0 a3 3 0 1 0 6 0 a3 3 0 1 0 -6 0z" id="SvgjsPath11379"></path><path d="M-5 0 a5 5 0 1 0 10 0 a5 5 0 1 0 -10 0z" id="SvgjsPath11377"></path><path d="M2 -2 L-2 2z" id="SvgjsPath11375"></path><path d="M6 -6 L-6 6z" id="SvgjsPath11376"></path><path d="M30 -30 L-30 30z" id="SvgjsPath11380"></path></defs><symbol id="SvgjsSymbol11381"><use xlink:href="#SvgjsPath11375" x="30" y="30" stroke="#1c538e"></use><use xlink:href="#SvgjsPath11376" x="30" y="90" stroke="#1c538e"></use><use xlink:href="#SvgjsPath11377" x="30" y="150" stroke="#1c538e"></use><use xlink:href="#SvgjsPath11377" x="30" y="210" stroke="#1c538e"></use><use xlink:href="#SvgjsPath11378" x="30" y="270" stroke="#1c538e"></use><use xlink:href="#SvgjsPath11377" x="30" y="330" stroke="#1c538e"></use><use xlink:href="#SvgjsPath11376" x="90" y="30" stroke="#1c538e"></use><use xlink:href="#SvgjsPath11376" x="90" y="90" stroke="#1c538e"></use><use xlink:href="#SvgjsPath11377" x="90" y="150" stroke="#1c538e"></use><use xlink:href="#SvgjsPath11376" x="90" y="210" stroke="#1c538e"></use><use xlink:href="#SvgjsPath11376" x="90" y="270" stroke="#1c538e"></use><use xlink:href="#SvgjsPath11376" x="90" y="330" stroke="#1c538e"></use><use xlink:href="#SvgjsPath11377" x="150" y="30" stroke="#1c538e"></use><use xlink:href="#SvgjsPath11377" x="150" y="90" stroke="#1c538e"></use><use xlink:href="#SvgjsPath11377" x="150" y="150" stroke="#1c538e"></use><use xlink:href="#SvgjsPath11375" x="150" y="210" stroke="#1c538e"></use><use xlink:href="#SvgjsPath11377" x="150" y="270" stroke="#1c538e"></use><use xlink:href="#SvgjsPath11376" x="150" y="330" stroke="#1c538e"></use><use xlink:href="#SvgjsPath11379" x="210" y="30" stroke="#1c538e"></use><use xlink:href="#SvgjsPath11377" x="210" y="90" stroke="#1c538e"></use><use xlink:href="#SvgjsPath11377" x="210" y="150" stroke="#1c538e"></use><use xlink:href="#SvgjsPath11377" x="210" y="210" stroke="#1c538e"></use><use xlink:href="#SvgjsPath11375" x="210" y="270" stroke="#1c538e"></use><use xlink:href="#SvgjsPath11380" x="210" y="330" stroke="#1c538e" stroke-width="3"></use><use xlink:href="#SvgjsPath11375" x="270" y="30" stroke="#1c538e"></use><use xlink:href="#SvgjsPath11378" x="270" y="90" stroke="#1c538e"></use><use xlink:href="#SvgjsPath11375" x="270" y="150" stroke="#1c538e"></use><use xlink:href="#SvgjsPath11377" x="270" y="210" stroke="#1c538e"></use><use xlink:href="#SvgjsPath11375" x="270" y="270" stroke="#1c538e"></use><use xlink:href="#SvgjsPath11379" x="270" y="330" stroke="#1c538e"></use><use xlink:href="#SvgjsPath11376" x="330" y="30" stroke="#1c538e"></use><use xlink:href="#SvgjsPath11375" x="330" y="90" stroke="#1c538e"></use><use xlink:href="#SvgjsPath11375" x="330" y="150" stroke="#1c538e"></use><use xlink:href="#SvgjsPath11376" x="330" y="210" stroke="#1c538e"></use><use xlink:href="#SvgjsPath11379" x="330" y="270" stroke="#1c538e"></use><use xlink:href="#SvgjsPath11376" x="330" y="330" stroke="#1c538e"></use><use xlink:href="#SvgjsPath11376" x="390" y="30" stroke="#1c538e"></use><use xlink:href="#SvgjsPath11376" x="390" y="90" stroke="#1c538e"></use><use xlink:href="#SvgjsPath11376" x="390" y="150" stroke="#1c538e"></use><use xlink:href="#SvgjsPath11377" x="390" y="210" stroke="#1c538e"></use><use xlink:href="#SvgjsPath11375" x="390" y="270" stroke="#1c538e"></use><use xlink:href="#SvgjsPath11379" x="390" y="330" stroke="#1c538e"></use><use xlink:href="#SvgjsPath11379" x="450" y="30" stroke="#1c538e"></use><use xlink:href="#SvgjsPath11379" x="450" y="90" stroke="#1c538e"></use><use xlink:href="#SvgjsPath11376" x="450" y="150" stroke="#1c538e"></use><use xlink:href="#SvgjsPath11377" x="450" y="210" stroke="#1c538e"></use><use xlink:href="#SvgjsPath11379" x="450" y="270" stroke="#1c538e"></use><use xlink:href="#SvgjsPath11378" x="450" y="330" stroke="#1c538e"></use><use xlink:href="#SvgjsPath11379" x="510" y="30" stroke="#1c538e"></use><use xlink:href="#SvgjsPath11377" x="510" y="90" stroke="#1c538e"></use><use xlink:href="#SvgjsPath11377" x="510" y="150" stroke="#1c538e"></use><use xlink:href="#SvgjsPath11376" x="510" y="210" stroke="#1c538e"></use><use xlink:href="#SvgjsPath11377" x="510" y="270" stroke="#1c538e"></use><use xlink:href="#SvgjsPath11376" x="510" y="330" stroke="#1c538e"></use><use xlink:href="#SvgjsPath11376" x="570" y="30" stroke="#1c538e"></use><use xlink:href="#SvgjsPath11376" x="570" y="90" stroke="#1c538e"></use><use xlink:href="#SvgjsPath11380" x="570" y="150" stroke="#1c538e" stroke-width="3"></use><use xlink:href="#SvgjsPath11375" x="570" y="210" stroke="#1c538e"></use><use xlink:href="#SvgjsPath11376" x="570" y="270" stroke="#1c538e"></use><use xlink:href="#SvgjsPath11377" x="570" y="330" stroke="#1c538e"></use><use xlink:href="#SvgjsPath11379" x="630" y="30" stroke="#1c538e"></use><use xlink:href="#SvgjsPath11376" x="630" y="90" stroke="#1c538e"></use><use xlink:href="#SvgjsPath11377" x="630" y="150" stroke="#1c538e"></use><use xlink:href="#SvgjsPath11376" x="630" y="210" stroke="#1c538e"></use><use xlink:href="#SvgjsPath11377" x="630" y="270" stroke="#1c538e"></use><use xlink:href="#SvgjsPath11379" x="630" y="330" stroke="#1c538e"></use><use xlink:href="#SvgjsPath11377" x="690" y="30" stroke="#1c538e"></use><use xlink:href="#SvgjsPath11376" x="690" y="90" stroke="#1c538e"></use><use xlink:href="#SvgjsPath11376" x="690" y="150" stroke="#1c538e"></use><use xlink:href="#SvgjsPath11377" x="690" y="210" stroke="#1c538e"></use><use xlink:href="#SvgjsPath11375" x="690" y="270" stroke="#1c538e"></use><use xlink:href="#SvgjsPath11375" x="690" y="330" stroke="#1c538e"></use></symbol></svg>