<svg xmlns="http://www.w3.org/2000/svg" version="1.1" xmlns:xlink="http://www.w3.org/1999/xlink" xmlns:svgjs="http://svgjs.com/svgjs" width="1400" height="360" preserveAspectRatio="none" viewBox="0 0 1400 360"><g mask="url(&quot;#SvgjsMask1013&quot;)" fill="none"><rect width="1400" height="360" x="0" y="0" fill="url(#SvgjsLinearGradient1014)"></rect><path d="M 0,12 C 56,36.4 168,129.2 280,134 C 392,138.8 448,32.8 560,36 C 672,39.2 728,146.6 840,150 C 952,153.4 1008,52.6 1120,53 C 1232,53.4 1344,132.2 1400,152L1400 360L0 360z" fill="#184a7e"></path><path d="M 0,227 C 93.4,244 280.2,313 467,312 C 653.8,311 747.4,217 934,222 C 1120.6,227 1306.8,314 1400,337L1400 360L0 360z" fill="#2264ab"></path></g><defs><mask id="SvgjsMask1013"><rect width="1400" height="360" fill="#ffffff"></rect></mask><linearGradient x1="18.57%" y1="-72.22%" x2="81.43%" y2="172.22%" gradientUnits="userSpaceOnUse" id="SvgjsLinearGradient1014"><stop stop-color="#0e2a47" offset="0"></stop><stop stop-color="#00459e" offset="1"></stop></linearGradient></defs></svg>